<?xml version="1.0" encoding="UTF-8" standalone="no"?><!DOCTYPE svg PUBLIC "-//W3C//DTD SVG 1.1//EN" "http://www.w3.org/Graphics/SVG/1.1/DTD/svg11.dtd"><svg width="100%" height="100%" viewBox="0 0 2481 1437" version="1.1" xmlns="http://www.w3.org/2000/svg" xmlns:xlink="http://www.w3.org/1999/xlink" xml:space="preserve" xmlns:serif="http://www.serif.com/" style="fill-rule:evenodd;clip-rule:evenodd;stroke-linejoin:round;stroke-miterlimit:2;"><rect x="0" y="0" width="2480.32" height="1436.5" style="fill:none;"/><g><g><path d="M660.549,530.57l-59.721,0l0,44.741l69.807,0l0,20.173l-95.074,0l0,-145.408l94.375,0l0,20.374l-69.108,0l0,40.146l59.721,0l0,19.974Z" style="fill:#5a6163;fill-rule:nonzero;"/><path d="M809.352,548.147c-1.465,15.513 -7.19,27.613 -17.177,36.302c-9.987,8.688 -23.27,13.033 -39.848,13.033c-11.584,0 -21.787,-2.747 -30.609,-8.24c-8.822,-5.492 -15.629,-13.299 -20.423,-23.419c-4.794,-10.12 -7.29,-21.871 -7.49,-35.253l0,-13.582c0,-13.715 2.43,-25.799 7.29,-36.252c4.86,-10.453 11.835,-18.509 20.923,-24.168c9.087,-5.659 19.59,-8.489 31.508,-8.489c16.045,0 28.962,4.344 38.749,13.033c9.787,8.688 15.479,20.989 17.077,36.901l-25.167,0c-1.198,-10.453 -4.244,-17.993 -9.138,-22.62c-4.893,-4.627 -12.067,-6.941 -21.521,-6.941c-10.986,0 -19.424,4.015 -25.317,12.045c-5.892,8.03 -8.905,19.809 -9.038,35.336l0,12.896c0,15.726 2.813,27.721 8.439,35.984c5.626,8.264 13.865,12.395 24.717,12.395c9.921,0 17.377,-2.23 22.371,-6.691c4.993,-4.46 8.156,-11.884 9.487,-22.27l25.167,0Z" style="fill:#5a6163;fill-rule:nonzero;"/><path d="M864.379,575.311l66.013,0l0,20.173l-91.279,0l0,-145.408l25.266,0l0,125.235Z" style="fill:#5a6163;fill-rule:nonzero;"/><rect x="958.455" y="450.076" width="25.167" height="145.408" style="fill:#5a6163;fill-rule:nonzero;"/><path d="M1047.14,541.555l0,53.929l-25.267,0l0,-145.408l55.626,0c16.246,0 29.145,4.233 38.699,12.698c9.554,8.465 14.331,19.662 14.331,33.591c0,14.264 -4.677,25.361 -14.031,33.293c-9.355,7.932 -22.454,11.897 -39.298,11.897l-30.06,0Zm0,-20.373l30.359,0c8.988,0 15.846,-2.113 20.573,-6.341c4.727,-4.228 7.091,-10.337 7.091,-18.326c0,-7.856 -2.397,-14.131 -7.191,-18.825c-4.793,-4.694 -11.385,-7.107 -19.774,-7.24l-31.058,0l0,50.732Z" style="fill:#5a6163;fill-rule:nonzero;"/><path d="M1235.79,558.034c0,-6.392 -2.247,-11.319 -6.741,-14.781c-4.494,-3.462 -12.6,-6.957 -24.318,-10.486c-11.718,-3.529 -21.039,-7.457 -27.963,-11.784c-13.249,-8.323 -19.874,-19.175 -19.874,-32.557c0,-11.718 4.777,-21.372 14.331,-28.962c9.554,-7.59 21.955,-11.385 37.201,-11.385c10.12,0 19.142,1.864 27.064,5.593c7.923,3.728 14.148,9.038 18.676,15.929c4.527,6.891 6.791,14.53 6.791,22.919l-25.167,0c0,-7.59 -2.38,-13.532 -7.141,-17.826c-4.76,-4.294 -11.568,-6.442 -20.423,-6.442c-8.255,0 -14.663,1.765 -19.224,5.293c-4.561,3.529 -6.841,8.456 -6.841,14.781c0,5.326 2.463,9.77 7.39,13.332c4.927,3.562 13.05,7.024 24.368,10.387c11.318,3.362 20.406,7.19 27.264,11.484c6.857,4.295 11.884,9.221 15.08,14.781c3.196,5.559 4.794,12.067 4.794,19.524c0,12.117 -4.644,21.755 -13.932,28.912c-9.288,7.157 -21.888,10.736 -37.8,10.736c-10.519,0 -20.19,-1.948 -29.012,-5.843c-8.821,-3.895 -15.679,-9.271 -20.572,-16.128c-4.894,-6.858 -7.341,-14.847 -7.341,-23.969l25.267,0c0,8.256 2.73,14.648 8.189,19.175c5.459,4.527 13.282,6.791 23.469,6.791c8.788,0 15.396,-1.781 19.824,-5.343c4.427,-3.562 6.641,-8.272 6.641,-14.131Z" style="fill:#5a6163;fill-rule:nonzero;"/><path d="M1375.4,530.57l-59.721,0l0,44.741l69.808,0l0,20.173l-95.074,0l0,-145.408l94.375,0l0,20.374l-69.109,0l0,40.146l59.721,0l0,19.974Z" style="fill:#5a6163;fill-rule:nonzero;"/><rect x="1084.59" y="645.548" width="25.167" height="145.408" style="fill:#5a6163;fill-rule:nonzero;"/><path d="M1264.05,722.047c0,14.248 -2.464,26.748 -7.391,37.5c-4.926,10.753 -11.967,19.009 -21.122,24.768c-9.154,5.759 -19.69,8.638 -31.608,8.638c-11.784,0 -22.287,-2.879 -31.508,-8.638c-9.221,-5.759 -16.345,-13.965 -21.372,-24.618c-5.027,-10.652 -7.573,-22.936 -7.64,-36.851l0,-8.189c0,-14.181 2.514,-26.698 7.54,-37.55c5.027,-10.853 12.118,-19.158 21.272,-24.918c9.155,-5.759 19.657,-8.638 31.508,-8.638c11.851,0 22.354,2.846 31.509,8.539c9.154,5.692 16.228,13.881 21.222,24.567c4.993,10.686 7.523,23.12 7.59,37.301l0,8.089Zm-25.267,-7.59c0,-16.112 -3.046,-28.462 -9.138,-37.051c-6.092,-8.589 -14.73,-12.883 -25.916,-12.883c-10.918,0 -19.457,4.278 -25.616,12.833c-6.158,8.556 -9.304,20.656 -9.437,36.302l0,8.389c0,15.979 3.112,28.329 9.337,37.051c6.226,8.722 14.864,13.083 25.916,13.083c11.185,0 19.791,-4.261 25.816,-12.783c6.025,-8.522 9.038,-20.973 9.038,-37.351l0,-7.59Z" style="fill:#5a6163;fill-rule:nonzero;"/><path d="M1392.98,665.921l-45.34,0l0,125.035l-25.067,0l0,-125.035l-44.94,0l0,-20.373l115.347,0l0,20.373Z" style="fill:#5a6163;fill-rule:nonzero;"/><path d="M359.247,932.499l0,53.929l-25.266,0l0,-145.408l55.626,0c16.245,0 29.145,4.232 38.699,12.697c9.554,8.465 14.331,19.662 14.331,33.592c0,14.263 -4.677,25.361 -14.031,33.292c-9.355,7.932 -22.454,11.898 -39.298,11.898l-30.061,0Zm0,-20.373l30.36,0c8.988,0 15.846,-2.114 20.573,-6.342c4.727,-4.227 7.091,-10.336 7.091,-18.325c0,-7.857 -2.397,-14.132 -7.191,-18.825c-4.794,-4.694 -11.385,-7.108 -19.774,-7.241l-31.059,0l0,50.733Z" style="fill:#5a6163;fill-rule:nonzero;"/><path d="M535.514,952.572l-56.325,0l-11.785,33.856l-26.265,0l54.927,-145.408l22.67,0l55.028,145.408l-26.366,0l-11.884,-33.856Zm-49.235,-20.373l42.145,0l-21.073,-60.32l-21.072,60.32Z" style="fill:#5a6163;fill-rule:nonzero;"/><path d="M706.288,939.09c-1.464,15.513 -7.19,27.614 -17.177,36.302c-9.987,8.689 -23.269,13.033 -39.847,13.033c-11.585,0 -21.788,-2.746 -30.61,-8.239c-8.821,-5.493 -15.629,-13.299 -20.423,-23.419c-4.793,-10.12 -7.29,-21.871 -7.49,-35.253l0,-13.582c0,-13.716 2.43,-25.8 7.29,-36.253c4.861,-10.452 11.835,-18.508 20.923,-24.168c9.088,-5.659 19.591,-8.488 31.508,-8.488c16.046,0 28.962,4.344 38.749,13.032c9.787,8.689 15.479,20.989 17.077,36.902l-25.166,0c-1.199,-10.453 -4.245,-17.993 -9.138,-22.62c-4.894,-4.628 -12.068,-6.941 -21.522,-6.941c-10.985,0 -19.424,4.015 -25.316,12.045c-5.893,8.03 -8.905,19.808 -9.038,35.336l0,12.895c0,15.726 2.813,27.721 8.438,35.985c5.626,8.263 13.865,12.395 24.718,12.395c9.92,0 17.377,-2.23 22.37,-6.691c4.994,-4.461 8.156,-11.884 9.488,-22.271l25.166,0Z" style="fill:#5a6163;fill-rule:nonzero;"/><path d="M777.794,923.611l-16.478,17.477l0,45.34l-25.267,0l0,-145.408l25.267,0l0,68.21l13.981,-17.277l42.544,-50.933l30.559,0l-54.028,64.415l57.124,80.993l-29.96,0l-43.742,-62.817Z" style="fill:#5a6163;fill-rule:nonzero;"/><path d="M953.561,952.572l-56.325,0l-11.785,33.856l-26.265,0l54.927,-145.408l22.67,0l55.028,145.408l-26.365,0l-11.885,-33.856Zm-49.235,-20.373l42.145,0l-21.072,-60.32l-21.073,60.32Z" style="fill:#5a6163;fill-rule:nonzero;"/><path d="M1124.84,967.553c-5.26,6.857 -12.55,12.05 -21.871,15.579c-9.321,3.529 -19.907,5.293 -31.758,5.293c-12.184,0 -22.97,-2.763 -32.358,-8.289c-9.387,-5.526 -16.628,-13.432 -21.721,-23.719c-5.093,-10.286 -7.74,-22.287 -7.939,-36.002l0,-11.385c0,-21.971 5.259,-39.131 15.779,-51.482c10.519,-12.35 25.2,-18.525 44.042,-18.525c16.178,0 29.028,4.011 38.549,12.034c9.52,8.022 15.246,19.557 17.177,34.604l-24.767,0c-2.797,-17.51 -12.95,-26.265 -30.46,-26.265c-11.318,0 -19.924,4.074 -25.816,12.223c-5.892,8.148 -8.938,20.105 -9.138,35.869l0,11.175c0,15.698 3.312,27.887 9.937,36.568c6.625,8.68 15.829,13.021 27.613,13.021c12.917,0 22.105,-2.93 27.564,-8.789l0,-28.462l-29.96,0l0,-19.175l55.127,0l0,55.727Z" style="fill:#5a6163;fill-rule:nonzero;"/><path d="M1244.78,921.514l-59.721,0l0,44.74l69.808,0l0,20.174l-95.074,0l0,-145.408l94.375,0l0,20.373l-69.109,0l0,40.147l59.721,0l0,19.974Z" style="fill:#5a6163;fill-rule:nonzero;"/><path d="M1358.63,948.977c0,-6.391 -2.247,-11.318 -6.742,-14.78c-4.494,-3.462 -12.6,-6.958 -24.317,-10.486c-11.718,-3.529 -21.039,-7.457 -27.963,-11.785c-13.25,-8.322 -19.874,-19.174 -19.874,-32.557c0,-11.718 4.777,-21.371 14.331,-28.961c9.554,-7.59 21.954,-11.385 37.201,-11.385c10.12,0 19.141,1.864 27.064,5.592c7.923,3.729 14.148,9.038 18.675,15.929c4.528,6.891 6.791,14.531 6.791,22.92l-25.166,0c0,-7.59 -2.381,-13.532 -7.141,-17.827c-4.76,-4.294 -11.568,-6.441 -20.423,-6.441c-8.256,0 -14.664,1.764 -19.225,5.293c-4.56,3.529 -6.841,8.455 -6.841,14.78c0,5.327 2.464,9.771 7.391,13.333c4.927,3.562 13.049,7.024 24.367,10.386c11.319,3.362 20.407,7.191 27.264,11.485c6.858,4.294 11.885,9.221 15.08,14.78c3.196,5.56 4.794,12.068 4.794,19.525c0,12.117 -4.644,21.754 -13.931,28.911c-9.288,7.157 -21.888,10.736 -37.8,10.736c-10.52,0 -20.19,-1.947 -29.012,-5.842c-8.822,-3.895 -15.679,-9.271 -20.573,-16.129c-4.893,-6.857 -7.34,-14.847 -7.34,-23.968l25.266,0c0,8.256 2.73,14.647 8.19,19.174c5.459,4.528 13.282,6.791 23.469,6.791c8.788,0 15.396,-1.78 19.823,-5.342c4.428,-3.562 6.642,-8.273 6.642,-14.132Z" style="fill:#5a6163;fill-rule:nonzero;"/></g><g><g><path d="M1645.36,430.049l0,192.135l-166.99,-96.068l0,-192.135l166.99,96.068Z" style="fill:#4c76ba;"/><path d="M1478.37,1102.52l0,-192.135l166.99,-96.068l0,192.136l-166.99,96.067Z" style="fill:#33a957;"/><path d="M1645.36,622.184l0,192.136l-166.99,96.068l0,-384.272l166.99,96.068Z" style="fill:#e8412c;"/><path d="M1979.34,622.184l166.99,96.068l-166.99,96.068l-166.991,-96.068l166.991,-96.068Z" style="fill:#e8412c;"/><path d="M1979.34,622.184l-166.991,96.068l-166.99,-96.068l0,-192.135l333.981,192.135Z" style="fill:#32ab52;"/><path d="M1645.36,1006.46l0,-192.136l166.99,-96.068l166.991,96.068l-333.981,192.136Z" style="fill:#4c76ba;"/><path d="M1645.36,622.184l0,192.136l166.99,-96.068l-166.99,-96.068Z" style="fill:#fbba08;"/></g></g></g></svg>