<?xml version="1.0" encoding="UTF-8" standalone="no"?>
<svg
   xmlns:dc="http://purl.org/dc/elements/1.1/"
   xmlns:cc="http://creativecommons.org/ns#"
   xmlns:rdf="http://www.w3.org/1999/02/22-rdf-syntax-ns#"
   xmlns:svg="http://www.w3.org/2000/svg"
   xmlns="http://www.w3.org/2000/svg"
   xmlns:sodipodi="http://sodipodi.sourceforge.net/DTD/sodipodi-0.dtd"
   xmlns:inkscape="http://www.inkscape.org/namespaces/inkscape"
   width="1812.8503"
   height="769.48993"
   viewBox="0 0 1812.8504 769.48993"
   version="1.1"
   xml:space="preserve"
   style="clip-rule:evenodd;fill-rule:evenodd;stroke-linejoin:round;stroke-miterlimit:2"
   id="svg3901"
   sodipodi:docname="logo.svg"
   inkscape:version="0.92.4 5da689c313, 2019-01-14"><metadata
     id="metadata3907"><rdf:RDF><cc:Work
         rdf:about=""><dc:format>image/svg+xml</dc:format><dc:type
           rdf:resource="http://purl.org/dc/dcmitype/StillImage" /><dc:title /></cc:Work></rdf:RDF></metadata><defs
     id="defs3905" /><sodipodi:namedview
     pagecolor="#ffffff"
     bordercolor="#666666"
     borderopacity="1"
     objecttolerance="10"
     gridtolerance="10"
     guidetolerance="10"
     inkscape:pageopacity="0"
     inkscape:pageshadow="2"
     inkscape:window-width="1920"
     inkscape:window-height="999"
     id="namedview3903"
     showgrid="false"
     inkscape:zoom="0.35355339"
     inkscape:cx="646.94331"
     inkscape:cy="-79.769467"
     inkscape:window-x="0"
     inkscape:window-y="25"
     inkscape:window-maximized="1"
     inkscape:current-layer="g3895" /><rect
     x="-333.98099"
     y="-333.46231"
     width="2480.3201"
     height="1436.5"
     style="fill:none"
     id="rect3841" /><g
     id="g3899"
     transform="translate(-333.981,-333.46231)"><g
       id="g3879"><path
         d="m 660.549,530.57 h -59.721 v 44.741 h 69.807 v 20.173 H 575.561 V 450.076 h 94.375 v 20.374 h -69.108 v 40.146 h 59.721 z"
         style="fill:#5a6163;fill-rule:nonzero"
         id="path3843"
         inkscape:connector-curvature="0" /><path
         d="m 809.352,548.147 c -1.465,15.513 -7.19,27.613 -17.177,36.302 -9.987,8.688 -23.27,13.033 -39.848,13.033 -11.584,0 -21.787,-2.747 -30.609,-8.24 -8.822,-5.492 -15.629,-13.299 -20.423,-23.419 -4.794,-10.12 -7.29,-21.871 -7.49,-35.253 v -13.582 c 0,-13.715 2.43,-25.799 7.29,-36.252 4.86,-10.453 11.835,-18.509 20.923,-24.168 9.087,-5.659 19.59,-8.489 31.508,-8.489 16.045,0 28.962,4.344 38.749,13.033 9.787,8.688 15.479,20.989 17.077,36.901 h -25.167 c -1.198,-10.453 -4.244,-17.993 -9.138,-22.62 -4.893,-4.627 -12.067,-6.941 -21.521,-6.941 -10.986,0 -19.424,4.015 -25.317,12.045 -5.892,8.03 -8.905,19.809 -9.038,35.336 v 12.896 c 0,15.726 2.813,27.721 8.439,35.984 5.626,8.264 13.865,12.395 24.717,12.395 9.921,0 17.377,-2.23 22.371,-6.691 4.993,-4.46 8.156,-11.884 9.487,-22.27 z"
         style="fill:#5a6163;fill-rule:nonzero"
         id="path3845"
         inkscape:connector-curvature="0" /><path
         d="m 864.379,575.311 h 66.013 v 20.173 H 839.113 V 450.076 h 25.266 z"
         style="fill:#5a6163;fill-rule:nonzero"
         id="path3847"
         inkscape:connector-curvature="0" /><rect
         x="958.45502"
         y="450.07599"
         width="25.167"
         height="145.408"
         style="fill:#5a6163;fill-rule:nonzero"
         id="rect3849" /><path
         d="m 1047.14,541.555 v 53.929 h -25.267 V 450.076 h 55.626 c 16.246,0 29.145,4.233 38.699,12.698 9.554,8.465 14.331,19.662 14.331,33.591 0,14.264 -4.677,25.361 -14.031,33.293 -9.355,7.932 -22.454,11.897 -39.298,11.897 z m 0,-20.373 h 30.359 c 8.988,0 15.846,-2.113 20.573,-6.341 4.727,-4.228 7.091,-10.337 7.091,-18.326 0,-7.856 -2.397,-14.131 -7.191,-18.825 -4.793,-4.694 -11.385,-7.107 -19.774,-7.24 h -31.058 z"
         style="fill:#5a6163;fill-rule:nonzero"
         id="path3851"
         inkscape:connector-curvature="0" /><path
         d="m 1235.79,558.034 c 0,-6.392 -2.247,-11.319 -6.741,-14.781 -4.494,-3.462 -12.6,-6.957 -24.318,-10.486 -11.718,-3.529 -21.039,-7.457 -27.963,-11.784 -13.249,-8.323 -19.874,-19.175 -19.874,-32.557 0,-11.718 4.777,-21.372 14.331,-28.962 9.554,-7.59 21.955,-11.385 37.201,-11.385 10.12,0 19.142,1.864 27.064,5.593 7.923,3.728 14.148,9.038 18.676,15.929 4.527,6.891 6.791,14.53 6.791,22.919 h -25.167 c 0,-7.59 -2.38,-13.532 -7.141,-17.826 -4.76,-4.294 -11.568,-6.442 -20.423,-6.442 -8.255,0 -14.663,1.765 -19.224,5.293 -4.561,3.529 -6.841,8.456 -6.841,14.781 0,5.326 2.463,9.77 7.39,13.332 4.927,3.562 13.05,7.024 24.368,10.387 11.318,3.362 20.406,7.19 27.264,11.484 6.857,4.295 11.884,9.221 15.08,14.781 3.196,5.559 4.794,12.067 4.794,19.524 0,12.117 -4.644,21.755 -13.932,28.912 -9.288,7.157 -21.888,10.736 -37.8,10.736 -10.519,0 -20.19,-1.948 -29.012,-5.843 -8.821,-3.895 -15.679,-9.271 -20.572,-16.128 -4.894,-6.858 -7.341,-14.847 -7.341,-23.969 h 25.267 c 0,8.256 2.73,14.648 8.189,19.175 5.459,4.527 13.282,6.791 23.469,6.791 8.788,0 15.396,-1.781 19.824,-5.343 4.427,-3.562 6.641,-8.272 6.641,-14.131 z"
         style="fill:#5a6163;fill-rule:nonzero"
         id="path3853"
         inkscape:connector-curvature="0" /><path
         d="m 1375.4,530.57 h -59.721 v 44.741 h 69.808 v 20.173 h -95.074 V 450.076 h 94.375 v 20.374 h -69.109 v 40.146 h 59.721 z"
         style="fill:#5a6163;fill-rule:nonzero"
         id="path3855"
         inkscape:connector-curvature="0" /><rect
         x="1084.59"
         y="645.54797"
         width="25.167"
         height="145.408"
         style="fill:#5a6163;fill-rule:nonzero"
         id="rect3857" /><path
         d="m 1264.05,722.047 c 0,14.248 -2.464,26.748 -7.391,37.5 -4.926,10.753 -11.967,19.009 -21.122,24.768 -9.154,5.759 -19.69,8.638 -31.608,8.638 -11.784,0 -22.287,-2.879 -31.508,-8.638 -9.221,-5.759 -16.345,-13.965 -21.372,-24.618 -5.027,-10.652 -7.573,-22.936 -7.64,-36.851 v -8.189 c 0,-14.181 2.514,-26.698 7.54,-37.55 5.027,-10.853 12.118,-19.158 21.272,-24.918 9.155,-5.759 19.657,-8.638 31.508,-8.638 11.851,0 22.354,2.846 31.509,8.539 9.154,5.692 16.228,13.881 21.222,24.567 4.993,10.686 7.523,23.12 7.59,37.301 z m -25.267,-7.59 c 0,-16.112 -3.046,-28.462 -9.138,-37.051 -6.092,-8.589 -14.73,-12.883 -25.916,-12.883 -10.918,0 -19.457,4.278 -25.616,12.833 -6.158,8.556 -9.304,20.656 -9.437,36.302 v 8.389 c 0,15.979 3.112,28.329 9.337,37.051 6.226,8.722 14.864,13.083 25.916,13.083 11.185,0 19.791,-4.261 25.816,-12.783 6.025,-8.522 9.038,-20.973 9.038,-37.351 z"
         style="fill:#5a6163;fill-rule:nonzero"
         id="path3859"
         inkscape:connector-curvature="0" /><path
         d="m 1392.98,665.921 h -45.34 v 125.035 h -25.067 V 665.921 h -44.94 v -20.373 h 115.347 z"
         style="fill:#5a6163;fill-rule:nonzero"
         id="path3861"
         inkscape:connector-curvature="0" /><path
         d="m 359.247,932.499 v 53.929 H 333.981 V 841.02 h 55.626 c 16.245,0 29.145,4.232 38.699,12.697 9.554,8.465 14.331,19.662 14.331,33.592 0,14.263 -4.677,25.361 -14.031,33.292 -9.355,7.932 -22.454,11.898 -39.298,11.898 z m 0,-20.373 h 30.36 c 8.988,0 15.846,-2.114 20.573,-6.342 4.727,-4.227 7.091,-10.336 7.091,-18.325 0,-7.857 -2.397,-14.132 -7.191,-18.825 -4.794,-4.694 -11.385,-7.108 -19.774,-7.241 h -31.059 z"
         style="fill:#5a6163;fill-rule:nonzero"
         id="path3863"
         inkscape:connector-curvature="0" /><path
         d="m 535.514,952.572 h -56.325 l -11.785,33.856 H 441.139 L 496.066,841.02 h 22.67 l 55.028,145.408 h -26.366 z m -49.235,-20.373 h 42.145 l -21.073,-60.32 z"
         style="fill:#5a6163;fill-rule:nonzero"
         id="path3865"
         inkscape:connector-curvature="0" /><path
         d="m 706.288,939.09 c -1.464,15.513 -7.19,27.614 -17.177,36.302 -9.987,8.689 -23.269,13.033 -39.847,13.033 -11.585,0 -21.788,-2.746 -30.61,-8.239 -8.821,-5.493 -15.629,-13.299 -20.423,-23.419 -4.793,-10.12 -7.29,-21.871 -7.49,-35.253 v -13.582 c 0,-13.716 2.43,-25.8 7.29,-36.253 4.861,-10.452 11.835,-18.508 20.923,-24.168 9.088,-5.659 19.591,-8.488 31.508,-8.488 16.046,0 28.962,4.344 38.749,13.032 9.787,8.689 15.479,20.989 17.077,36.902 h -25.166 c -1.199,-10.453 -4.245,-17.993 -9.138,-22.62 -4.894,-4.628 -12.068,-6.941 -21.522,-6.941 -10.985,0 -19.424,4.015 -25.316,12.045 -5.893,8.03 -8.905,19.808 -9.038,35.336 v 12.895 c 0,15.726 2.813,27.721 8.438,35.985 5.626,8.263 13.865,12.395 24.718,12.395 9.92,0 17.377,-2.23 22.37,-6.691 4.994,-4.461 8.156,-11.884 9.488,-22.271 z"
         style="fill:#5a6163;fill-rule:nonzero"
         id="path3867"
         inkscape:connector-curvature="0" /><path
         d="m 777.794,923.611 -16.478,17.477 v 45.34 H 736.049 V 841.02 h 25.267 v 68.21 l 13.981,-17.277 42.544,-50.933 H 848.4 l -54.028,64.415 57.124,80.993 h -29.96 z"
         style="fill:#5a6163;fill-rule:nonzero"
         id="path3869"
         inkscape:connector-curvature="0" /><path
         d="m 953.561,952.572 h -56.325 l -11.785,33.856 H 859.186 L 914.113,841.02 h 22.67 l 55.028,145.408 h -26.365 z m -49.235,-20.373 h 42.145 l -21.072,-60.32 z"
         style="fill:#5a6163;fill-rule:nonzero"
         id="path3871"
         inkscape:connector-curvature="0" /><path
         d="m 1124.84,967.553 c -5.26,6.857 -12.55,12.05 -21.871,15.579 -9.321,3.529 -19.907,5.293 -31.758,5.293 -12.184,0 -22.97,-2.763 -32.358,-8.289 -9.387,-5.526 -16.628,-13.432 -21.721,-23.719 -5.093,-10.286 -7.74,-22.287 -7.939,-36.002 V 909.03 c 0,-21.971 5.259,-39.131 15.779,-51.482 10.519,-12.35 25.2,-18.525 44.042,-18.525 16.178,0 29.028,4.011 38.549,12.034 9.52,8.022 15.246,19.557 17.177,34.604 h -24.767 c -2.797,-17.51 -12.95,-26.265 -30.46,-26.265 -11.318,0 -19.924,4.074 -25.816,12.223 -5.892,8.148 -8.938,20.105 -9.138,35.869 v 11.175 c 0,15.698 3.312,27.887 9.937,36.568 6.625,8.68 15.829,13.021 27.613,13.021 12.917,0 22.105,-2.93 27.564,-8.789 v -28.462 h -29.96 v -19.175 h 55.127 z"
         style="fill:#5a6163;fill-rule:nonzero"
         id="path3873"
         inkscape:connector-curvature="0" /><path
         d="m 1244.78,921.514 h -59.721 v 44.74 h 69.808 v 20.174 h -95.074 V 841.02 h 94.375 v 20.373 h -69.109 v 40.147 h 59.721 z"
         style="fill:#5a6163;fill-rule:nonzero"
         id="path3875"
         inkscape:connector-curvature="0" /><path
         d="m 1358.63,948.977 c 0,-6.391 -2.247,-11.318 -6.742,-14.78 -4.494,-3.462 -12.6,-6.958 -24.317,-10.486 -11.718,-3.529 -21.039,-7.457 -27.963,-11.785 -13.25,-8.322 -19.874,-19.174 -19.874,-32.557 0,-11.718 4.777,-21.371 14.331,-28.961 9.554,-7.59 21.954,-11.385 37.201,-11.385 10.12,0 19.141,1.864 27.064,5.592 7.923,3.729 14.148,9.038 18.675,15.929 4.528,6.891 6.791,14.531 6.791,22.92 h -25.166 c 0,-7.59 -2.381,-13.532 -7.141,-17.827 -4.76,-4.294 -11.568,-6.441 -20.423,-6.441 -8.256,0 -14.664,1.764 -19.225,5.293 -4.56,3.529 -6.841,8.455 -6.841,14.78 0,5.327 2.464,9.771 7.391,13.333 4.927,3.562 13.049,7.024 24.367,10.386 11.319,3.362 20.407,7.191 27.264,11.485 6.858,4.294 11.885,9.221 15.08,14.78 3.196,5.56 4.794,12.068 4.794,19.525 0,12.117 -4.644,21.754 -13.931,28.911 -9.288,7.157 -21.888,10.736 -37.8,10.736 -10.52,0 -20.19,-1.947 -29.012,-5.842 -8.822,-3.895 -15.679,-9.271 -20.573,-16.129 -4.893,-6.857 -7.34,-14.847 -7.34,-23.968 h 25.266 c 0,8.256 2.73,14.647 8.19,19.174 5.459,4.528 13.282,6.791 23.469,6.791 8.788,0 15.396,-1.78 19.823,-5.342 4.428,-3.562 6.642,-8.273 6.642,-14.132 z"
         style="fill:#5a6163;fill-rule:nonzero"
         id="path3877"
         inkscape:connector-curvature="0" /></g><g
       id="g3897"><g
         id="g3895"><path
           d="m 1647.495,435.9665 v 192.135 l -166.99,-96.068 v -192.135 z"
           style="clip-rule:evenodd;fill:#4c76ba;fill-rule:evenodd;stroke:#4c76ba;stroke-width:0.60000002;stroke-linejoin:miter;stroke-miterlimit:2.28571415;stroke-dasharray:none;stroke-opacity:1"
           id="path3881-1"
           inkscape:connector-curvature="0" /><path
           inkscape:connector-curvature="0"
           d="m 1480.505,1101.1015 v -192.135 l 166.99,-96.068 v 192.136 z"
           style="clip-rule:evenodd;fill:#33a957;fill-rule:evenodd;stroke:#33a957;stroke-width:0.5;stroke-linejoin:miter;stroke-miterlimit:2.28571415;stroke-dasharray:none;stroke-opacity:1"
           id="path3883-3" /><path
           inkscape:connector-curvature="0"
           d="m 1970.0005,621.932 166.99,96.068 -166.99,96.068 L 1803.0095,718 Z"
           style="clip-rule:evenodd;fill:#e8412c;fill-rule:evenodd;stroke:#e8412c;stroke-width:0.5;stroke-linejoin:miter;stroke-miterlimit:2.28571415;stroke-dasharray:none;stroke-opacity:1"
           id="path3887-1" /><path
           d="M 1645.66,430.049 V 622.184 L 1478.67,526.116 V 333.981 Z"
           style="fill:#4c76ba;stroke:#4c76ba;stroke-width:0.60000002;stroke-linejoin:miter;stroke-miterlimit:2.28571415;stroke-dasharray:none;stroke-opacity:1"
           id="path3881"
           inkscape:connector-curvature="0" /><path
           d="M 1478.37,1102.52 V 910.385 l 166.99,-96.068 v 192.136 z"
           style="fill:#33a957;stroke:#33a957;stroke-width:0.5;stroke-linejoin:miter;stroke-miterlimit:2.28571415;stroke-dasharray:none;stroke-opacity:1"
           id="path3883"
           inkscape:connector-curvature="0" /><path
           d="M 1645.36,622.184 V 814.32 l -166.99,96.068 V 526.116 Z"
           style="fill:#e8412c;stroke:#e8412c;stroke-width:0.5;stroke-linejoin:miter;stroke-miterlimit:2.28571415;stroke-dasharray:none;stroke-opacity:1"
           id="path3885"
           inkscape:connector-curvature="0" /><path
           d="m 1979.34,622.184 166.99,96.068 -166.99,96.068 -166.991,-96.068 z"
           style="fill:#e8412c;stroke:#e8412c;stroke-width:0.5;stroke-linejoin:miter;stroke-miterlimit:2.28571415;stroke-dasharray:none;stroke-opacity:1"
           id="path3887"
           inkscape:connector-curvature="0" /><path
           d="m 1979.34,622.184 -166.991,96.068 -166.99,-96.068 V 430.049 Z"
           style="fill:#32ab52;stroke:#33a957;stroke-width:0.5;stroke-linejoin:miter;stroke-miterlimit:2.28571415;stroke-dasharray:none;stroke-opacity:1"
           id="path3889"
           inkscape:connector-curvature="0" /><path
           d="M 1645.36,1006.46 V 814.324 l 166.99,-96.068 166.991,96.068 z"
           style="fill:#4c76ba;stroke:#4c76ba;stroke-width:0.5;stroke-linejoin:miter;stroke-miterlimit:2.28571415;stroke-dasharray:none;stroke-opacity:1"
           id="path3891"
           inkscape:connector-curvature="0" /><path
           d="M 1645.36,622.184 V 814.32 l 166.99,-96.068 z"
           style="fill:#fbba08;stroke:#fbba08;stroke-width:0.5;stroke-linecap:square;stroke-linejoin:miter;stroke-miterlimit:2.28571415;stroke-dasharray:none;stroke-opacity:1;paint-order:markers fill stroke"
           id="path3893"
           inkscape:connector-curvature="0" /></g></g></g></svg>