<?xml version="1.0" encoding="UTF-8" standalone="no"?>
<svg
   xmlns:dc="http://purl.org/dc/elements/1.1/"
   xmlns:cc="http://creativecommons.org/ns#"
   xmlns:rdf="http://www.w3.org/1999/02/22-rdf-syntax-ns#"
   xmlns:svg="http://www.w3.org/2000/svg"
   xmlns="http://www.w3.org/2000/svg"
   xmlns:sodipodi="http://sodipodi.sourceforge.net/DTD/sodipodi-0.dtd"
   xmlns:inkscape="http://www.inkscape.org/namespaces/inkscape"
   inkscape:version="1.0beta2 (unknown)"
   sodipodi:docname="c2e-logo.svg"
   id="svg76"
   style="fill-rule:evenodd;clip-rule:evenodd;stroke-linejoin:round;stroke-miterlimit:2;"
   xml:space="preserve"
   version="1.1"
   viewBox="0 0 804 591"
   height="100%"
   width="100%"><metadata
   id="metadata82"><rdf:RDF><cc:Work
       rdf:about=""><dc:format>image/svg+xml</dc:format><dc:type
         rdf:resource="http://purl.org/dc/dcmitype/StillImage" /></cc:Work></rdf:RDF></metadata><defs
   id="defs80" /><sodipodi:namedview
   inkscape:current-layer="svg76"
   inkscape:window-maximized="0"
   inkscape:window-y="43"
   inkscape:window-x="1979"
   inkscape:cy="114.94749"
   inkscape:cx="152.77731"
   inkscape:zoom="0.70219966"
   showgrid="false"
   id="namedview78"
   inkscape:window-height="939"
   inkscape:window-width="1504"
   inkscape:pageshadow="2"
   inkscape:pageopacity="0"
   guidetolerance="10"
   gridtolerance="10"
   objecttolerance="10"
   borderopacity="1"
   inkscape:document-rotation="0"
   bordercolor="#666666"
   pagecolor="#ffffff" />
    
    <g
   id="g74"
   transform="matrix(2.14218,0,0,2.14218,-2047.2241,-3338.532)">
        <g
   id="g56"
   transform="matrix(0.466814,0,0,0.466814,563.545,1222.13)">
            <path
   inkscape:connector-curvature="0"
   id="path54"
   style="fill:#ffffff"
   d="m 1081.47,883.955 c 8.58,-16.579 20.84,-31.909 36.93,-45.924 32.85,-28.609 71.17,-42.943 114.96,-42.943 44.47,0 81.31,13.08 111.03,37.744 18.76,15.568 32.23,33.853 40.3,54.9 16.83,-5.023 34.9,-7.553 54.21,-7.553 51.33,0 93.96,17.812 128.18,52.773 34.92,35.671 51.26,74.978 51.26,116.918 0,19.93 -5.61,35.41 -14.64,47.27 5.77,10.6 8.44,22.01 8.44,34.04 0,26.58 -16.78,58.35 -66.09,81.09 -32.49,14.98 -66.15,22.41 -100.96,22.41 -30.16,0 -390.77,0 -404.19,0 -52.758,0 -95.524,-17.86 -128.845,-52.21 -33.302,-34.33 -50.075,-75.82 -50.075,-124.57 0,-47.83 16.839,-89.367 50.788,-124.501 34.068,-35.255 76.685,-53.22 128.132,-53.22 10.31,0 21.48,0.845 33.5,2.616 2.35,0.346 4.71,0.732 7.07,1.16 z" />
        </g>
        <g
   id="g60"
   transform="matrix(0.466814,0,0,0.466814,563.545,1222.13)">
            <path
   inkscape:connector-curvature="0"
   id="path58"
   style="fill:#73716f"
   d="m 1078.65,878.185 c 8.74,-15.84 20.81,-30.56 36.33,-44.082 33.83,-29.46 73.28,-44.224 118.38,-44.224 45.81,0 83.74,13.537 114.36,38.945 18.16,15.071 31.53,32.608 40.05,52.624 15.98,-4.304 33.02,-6.478 51.13,-6.478 52.82,0 96.69,18.36 131.91,54.339 35.99,36.77 52.73,77.321 52.73,120.561 0,19.79 -5.25,35.45 -13.74,47.73 5.14,10.54 7.55,21.78 7.55,33.58 0,28 -17.18,61.86 -69.12,85.82 -33.19,15.3 -67.58,22.89 -103.14,22.89 -30.16,0 -390.77,0 -404.19,0 -54.298,0 -98.289,-18.44 -132.584,-53.79 -34.272,-35.34 -51.544,-78.03 -51.544,-128.2 0,-49.22 17.316,-91.967 52.251,-128.12 35.066,-36.289 78.922,-54.81 131.877,-54.81 10.54,0 21.97,0.861 34.26,2.672 1.16,0.171 2.33,0.352 3.49,0.543 z m 366.44,351.285 c 34.06,0 66.99,-7.27 98.77,-21.93 46.69,-21.53 63.08,-51.2 63.08,-76.36 0,-11.15 -2.46,-21.73 -7.81,-31.55 -0.98,-1.81 -0.82,-4.02 0.43,-5.65 8.42,-11.06 13.57,-25.53 13.57,-44.11 0,-40.65 -15.93,-78.703 -49.77,-113.275 -33.22,-33.942 -74.63,-51.208 -124.46,-51.208 -18.78,0 -36.35,2.451 -52.72,7.336 -2.6,0.779 -5.37,-0.583 -6.35,-3.125 -7.76,-20.233 -20.73,-37.793 -38.76,-52.758 -28.83,-23.921 -64.58,-36.544 -107.71,-36.544 -42.49,0 -79.66,13.906 -111.53,41.662 -15.56,13.552 -27.44,28.36 -35.73,44.39 -1.05,2.031 -3.3,3.14 -5.55,2.732 -2.31,-0.417 -4.61,-0.795 -6.91,-1.132 -11.75,-1.731 -22.66,-2.561 -32.74,-2.561 -49.938,0 -91.318,17.41 -124.386,51.631 -32.964,34.114 -49.326,74.442 -49.326,120.882 0,47.33 16.274,87.61 48.605,120.94 32.349,33.35 73.89,50.63 125.107,50.63 z" />
        </g>
        <g
   id="g64"
   transform="matrix(240.804,0,0,220.676,1070.43,1774.45)">
            <path
   inkscape:connector-curvature="0"
   id="path62"
   style="fill:#53ac00;fill-rule:nonzero"
   d="m 0.268,-0.132 h 0.183 c 0.023,0 0.042,0.005 0.056,0.016 0.015,0.011 0.022,0.028 0.022,0.05 0,0.022 -0.007,0.038 -0.021,0.049 C 0.495,-0.006 0.478,0 0.457,0 H 0.123 C 0.1,0 0.081,-0.006 0.067,-0.017 0.052,-0.028 0.045,-0.044 0.045,-0.066 c 0,-0.015 0.008,-0.032 0.023,-0.051 0.018,-0.021 0.045,-0.052 0.08,-0.092 C 0.183,-0.248 0.215,-0.284 0.242,-0.318 0.269,-0.35 0.294,-0.383 0.317,-0.416 0.34,-0.45 0.352,-0.481 0.352,-0.509 0.352,-0.53 0.345,-0.548 0.331,-0.563 0.317,-0.578 0.3,-0.586 0.28,-0.586 c -0.021,0 -0.038,0.005 -0.051,0.016 -0.013,0.011 -0.022,0.025 -0.026,0.041 -0.005,0.016 -0.01,0.032 -0.015,0.048 -0.005,0.016 -0.012,0.029 -0.022,0.04 -0.011,0.011 -0.025,0.017 -0.042,0.017 -0.023,0 -0.04,-0.007 -0.054,-0.021 -0.012,-0.014 -0.019,-0.031 -0.019,-0.052 0,-0.062 0.024,-0.115 0.071,-0.16 0.047,-0.045 0.101,-0.067 0.164,-0.067 0.063,0 0.116,0.019 0.159,0.057 0.042,0.039 0.063,0.089 0.063,0.151 0,0.033 -0.009,0.068 -0.028,0.107 -0.019,0.038 -0.038,0.069 -0.057,0.094 -0.02,0.025 -0.048,0.058 -0.084,0.099 -0.036,0.042 -0.06,0.069 -0.071,0.084 z" />
        </g>
        <g
   id="g68"
   transform="matrix(240.804,0,0,220.676,1170.71,1774.45)">
            <path
   inkscape:connector-curvature="0"
   id="path66"
   style="fill:#73716f;fill-rule:nonzero"
   d="M 0.464,-0.218 H 0.157 c 0.005,0.034 0.02,0.06 0.045,0.077 0.025,0.018 0.056,0.027 0.091,0.027 0.027,0 0.059,-0.01 0.095,-0.029 0.036,-0.019 0.059,-0.029 0.068,-0.029 0.015,0 0.029,0.006 0.041,0.019 0.012,0.013 0.018,0.027 0.018,0.043 0,0.03 -0.025,0.058 -0.076,0.083 C 0.388,-0.001 0.335,0.012 0.28,0.012 0.2,0.012 0.135,-0.014 0.085,-0.066 0.035,-0.118 0.01,-0.184 0.01,-0.265 c 0,-0.075 0.025,-0.141 0.074,-0.196 0.049,-0.055 0.11,-0.083 0.184,-0.083 0.074,0 0.136,0.027 0.185,0.082 0.049,0.056 0.074,0.115 0.074,0.18 0,0.043 -0.021,0.064 -0.063,0.064 z m -0.31,-0.096 h 0.229 c -0.004,-0.033 -0.016,-0.059 -0.036,-0.08 -0.02,-0.02 -0.046,-0.03 -0.079,-0.03 -0.031,0 -0.057,0.011 -0.078,0.031 -0.021,0.021 -0.033,0.048 -0.036,0.079 z" />
        </g>
        <g
   id="g72"
   transform="matrix(240.804,0,0,220.676,982.509,1774.45)">
            <path
   inkscape:connector-curvature="0"
   id="path70"
   style="fill:#73716f;fill-rule:nonzero"
   d="m 0.435,-0.497 c 0.013,0.013 0.019,0.027 0.019,0.044 0,0.017 -0.005,0.032 -0.015,0.047 -0.011,0.015 -0.024,0.022 -0.04,0.022 -0.011,0 -0.029,-0.005 -0.054,-0.014 -0.024,-0.009 -0.044,-0.014 -0.06,-0.014 -0.039,0 -0.068,0.014 -0.089,0.043 -0.022,0.029 -0.032,0.064 -0.032,0.104 0,0.038 0.011,0.072 0.033,0.101 0.022,0.029 0.051,0.044 0.088,0.044 0.013,0 0.034,-0.005 0.06,-0.015 0.028,-0.01 0.043,-0.015 0.047,-0.015 0.017,0 0.031,0.006 0.044,0.018 0.012,0.013 0.018,0.028 0.018,0.045 0,0.023 -0.011,0.042 -0.034,0.058 C 0.397,-0.013 0.372,-0.002 0.347,0.003 0.322,0.009 0.299,0.012 0.278,0.012 0.202,0.012 0.14,-0.015 0.092,-0.069 0.044,-0.123 0.02,-0.188 0.02,-0.265 c 0,-0.075 0.025,-0.141 0.074,-0.196 0.048,-0.055 0.11,-0.083 0.184,-0.083 0.016,0 0.033,0.001 0.052,0.004 0.019,0.003 0.038,0.008 0.057,0.015 0.019,0.007 0.035,0.016 0.048,0.028 z" />
        </g>
    </g>
</svg>
