<?xml version="1.0" encoding="UTF-8" standalone="no"?>
<!DOCTYPE svg PUBLIC "-//W3C//DTD SVG 1.1//EN" "http://www.w3.org/Graphics/SVG/1.1/DTD/svg11.dtd">
<svg width="100%" height="100%" viewBox="0 0 804 591" version="1.1" xmlns="http://www.w3.org/2000/svg" xmlns:xlink="http://www.w3.org/1999/xlink" xml:space="preserve" xmlns:serif="http://www.serif.com/" style="fill-rule:evenodd;clip-rule:evenodd;stroke-linejoin:round;stroke-miterlimit:2;">
    <g transform="matrix(2.52242,0,0,2.31157,-1776.33,-2348.12)">
        <g>
            <g transform="matrix(50,0,0,50,708.685,1266.05)">
                <path d="M0.387,-0.644C0.352,-0.644 0.321,-0.637 0.292,-0.624C0.264,-0.611 0.24,-0.592 0.22,-0.567C0.2,-0.543 0.184,-0.513 0.174,-0.477C0.163,-0.442 0.157,-0.402 0.157,-0.357C0.157,-0.311 0.162,-0.27 0.172,-0.235C0.181,-0.199 0.196,-0.169 0.215,-0.145C0.234,-0.12 0.258,-0.102 0.287,-0.089C0.315,-0.076 0.349,-0.07 0.387,-0.07C0.416,-0.07 0.444,-0.073 0.47,-0.078C0.496,-0.084 0.521,-0.091 0.547,-0.098L0.547,-0.019C0.534,-0.014 0.521,-0.01 0.509,-0.006C0.496,-0.002 0.483,0.001 0.469,0.003C0.455,0.005 0.44,0.007 0.425,0.008C0.409,0.009 0.391,0.01 0.372,0.01C0.319,0.01 0.272,0.001 0.233,-0.017C0.194,-0.034 0.162,-0.059 0.136,-0.091C0.111,-0.124 0.092,-0.162 0.08,-0.208C0.067,-0.253 0.061,-0.303 0.061,-0.358C0.061,-0.412 0.068,-0.461 0.082,-0.506C0.096,-0.551 0.117,-0.59 0.145,-0.622C0.172,-0.654 0.206,-0.679 0.247,-0.697C0.288,-0.715 0.334,-0.724 0.387,-0.724C0.422,-0.724 0.456,-0.721 0.488,-0.713C0.52,-0.706 0.549,-0.696 0.574,-0.682L0.536,-0.606C0.516,-0.616 0.493,-0.625 0.469,-0.633C0.445,-0.64 0.418,-0.644 0.387,-0.644Z" style="fill:rgb(115,113,111);fill-rule:nonzero;"/>
            </g>
            <g transform="matrix(50,0,0,50,738.836,1266.05)">
                <path d="M0.097,0L0.097,-0.714L0.188,-0.714L0.188,-0.081L0.468,-0.081L0.468,0L0.097,0Z" style="fill:rgb(115,113,111);fill-rule:nonzero;"/>
            </g>
            <g transform="matrix(50,0,0,50,762.909,1266.05)">
                <path d="M0.68,-0.358C0.68,-0.303 0.674,-0.253 0.66,-0.208C0.647,-0.162 0.628,-0.124 0.602,-0.091C0.576,-0.059 0.543,-0.034 0.505,-0.017C0.466,0.001 0.422,0.01 0.371,0.01C0.318,0.01 0.272,0.001 0.233,-0.017C0.194,-0.034 0.162,-0.059 0.136,-0.091C0.111,-0.124 0.092,-0.162 0.08,-0.208C0.067,-0.253 0.061,-0.304 0.061,-0.359C0.061,-0.414 0.067,-0.464 0.08,-0.51C0.092,-0.555 0.111,-0.593 0.137,-0.625C0.162,-0.657 0.195,-0.682 0.234,-0.699C0.273,-0.716 0.319,-0.725 0.372,-0.725C0.423,-0.725 0.467,-0.716 0.505,-0.699C0.543,-0.682 0.576,-0.657 0.602,-0.625C0.628,-0.593 0.647,-0.554 0.66,-0.509C0.674,-0.464 0.68,-0.414 0.68,-0.358ZM0.157,-0.358C0.157,-0.313 0.161,-0.273 0.17,-0.238C0.178,-0.202 0.191,-0.172 0.209,-0.147C0.226,-0.122 0.248,-0.103 0.275,-0.09C0.302,-0.076 0.334,-0.07 0.371,-0.07C0.408,-0.07 0.44,-0.076 0.467,-0.09C0.494,-0.103 0.516,-0.122 0.533,-0.147C0.551,-0.172 0.564,-0.202 0.572,-0.238C0.58,-0.273 0.584,-0.313 0.584,-0.358C0.584,-0.403 0.58,-0.443 0.572,-0.479C0.564,-0.514 0.551,-0.544 0.534,-0.569C0.516,-0.593 0.494,-0.612 0.468,-0.625C0.441,-0.638 0.409,-0.645 0.372,-0.645C0.335,-0.645 0.303,-0.638 0.276,-0.625C0.249,-0.612 0.227,-0.593 0.209,-0.569C0.191,-0.544 0.178,-0.514 0.17,-0.479C0.161,-0.443 0.157,-0.403 0.157,-0.358Z" style="fill:rgb(115,113,111);fill-rule:nonzero;"/>
            </g>
            <g transform="matrix(50,0,0,50,800.018,1266.05)">
                <path d="M0.608,-0.715L0.608,-0.252C0.608,-0.215 0.603,-0.18 0.592,-0.148C0.581,-0.117 0.565,-0.089 0.543,-0.065C0.522,-0.042 0.494,-0.024 0.462,-0.01C0.429,0.003 0.39,0.01 0.346,0.01C0.305,0.01 0.268,0.003 0.236,-0.009C0.204,-0.022 0.177,-0.039 0.156,-0.063C0.134,-0.086 0.118,-0.113 0.106,-0.146C0.095,-0.178 0.09,-0.214 0.09,-0.254L0.09,-0.714L0.181,-0.714L0.181,-0.249C0.181,-0.192 0.195,-0.148 0.223,-0.117C0.252,-0.085 0.294,-0.07 0.351,-0.07C0.38,-0.07 0.405,-0.074 0.426,-0.083C0.447,-0.092 0.464,-0.104 0.477,-0.12C0.49,-0.136 0.5,-0.155 0.507,-0.177C0.513,-0.199 0.517,-0.224 0.517,-0.25L0.517,-0.715L0.608,-0.715Z" style="fill:rgb(115,113,111);fill-rule:nonzero;"/>
            </g>
            <g transform="matrix(50,0,0,50,834.93,1266.05)">
                <path d="M0.623,-0.364C0.623,-0.304 0.615,-0.251 0.6,-0.205C0.584,-0.16 0.561,-0.122 0.532,-0.092C0.502,-0.061 0.466,-0.038 0.423,-0.023C0.379,-0.008 0.331,0 0.276,0L0.097,0L0.097,-0.714L0.296,-0.714C0.346,-0.714 0.391,-0.706 0.431,-0.691C0.472,-0.676 0.506,-0.654 0.534,-0.625C0.563,-0.595 0.584,-0.559 0.6,-0.515C0.615,-0.472 0.623,-0.421 0.623,-0.364ZM0.527,-0.361C0.527,-0.408 0.521,-0.449 0.511,-0.484C0.5,-0.519 0.484,-0.547 0.464,-0.57C0.443,-0.592 0.418,-0.609 0.388,-0.62C0.358,-0.631 0.324,-0.636 0.286,-0.636L0.188,-0.636L0.188,-0.078L0.267,-0.078C0.353,-0.078 0.418,-0.102 0.461,-0.149C0.505,-0.197 0.527,-0.267 0.527,-0.361Z" style="fill:rgb(115,113,111);fill-rule:nonzero;"/>
            </g>
            <g transform="matrix(50,0,0,50,869.134,1266.05)">
                <path d="M0.492,0L0.047,0L0.047,-0.076L0.218,-0.262C0.242,-0.289 0.264,-0.313 0.283,-0.334C0.302,-0.356 0.319,-0.378 0.332,-0.398C0.346,-0.419 0.356,-0.44 0.363,-0.461C0.37,-0.482 0.374,-0.505 0.374,-0.53C0.374,-0.549 0.371,-0.566 0.366,-0.581C0.36,-0.595 0.352,-0.608 0.342,-0.618C0.332,-0.628 0.32,-0.636 0.306,-0.641C0.292,-0.646 0.276,-0.649 0.259,-0.649C0.228,-0.649 0.2,-0.643 0.175,-0.63C0.15,-0.618 0.126,-0.602 0.104,-0.582L0.054,-0.64C0.067,-0.652 0.081,-0.663 0.096,-0.673C0.111,-0.683 0.127,-0.692 0.145,-0.7C0.162,-0.707 0.18,-0.713 0.199,-0.718C0.218,-0.722 0.239,-0.724 0.26,-0.724C0.291,-0.724 0.319,-0.72 0.344,-0.711C0.37,-0.702 0.391,-0.69 0.409,-0.673C0.426,-0.657 0.44,-0.637 0.449,-0.613C0.459,-0.589 0.464,-0.563 0.464,-0.533C0.464,-0.506 0.46,-0.479 0.451,-0.454C0.442,-0.429 0.43,-0.404 0.415,-0.38C0.4,-0.356 0.382,-0.332 0.361,-0.307C0.34,-0.283 0.317,-0.257 0.293,-0.231L0.156,-0.085L0.156,-0.081L0.492,-0.081L0.492,0Z" style="fill:rgb(83,172,0);fill-rule:nonzero;"/>
            </g>
            <g transform="matrix(50,0,0,50,896.673,1266.05)">
                <path d="M0.468,0L0.097,0L0.097,-0.714L0.468,-0.714L0.468,-0.634L0.188,-0.634L0.188,-0.413L0.449,-0.413L0.449,-0.334L0.188,-0.334L0.188,-0.08L0.468,-0.08L0.468,0Z" style="fill:rgb(115,113,111);fill-rule:nonzero;"/>
            </g>
            <g transform="matrix(50,0,0,50,923.065,1266.05)">
                <path d="M0.623,-0.364C0.623,-0.304 0.615,-0.251 0.6,-0.205C0.584,-0.16 0.561,-0.122 0.532,-0.092C0.502,-0.061 0.466,-0.038 0.423,-0.023C0.379,-0.008 0.331,0 0.276,0L0.097,0L0.097,-0.714L0.296,-0.714C0.346,-0.714 0.391,-0.706 0.431,-0.691C0.472,-0.676 0.506,-0.654 0.534,-0.625C0.563,-0.595 0.584,-0.559 0.6,-0.515C0.615,-0.472 0.623,-0.421 0.623,-0.364ZM0.527,-0.361C0.527,-0.408 0.521,-0.449 0.511,-0.484C0.5,-0.519 0.484,-0.547 0.464,-0.57C0.443,-0.592 0.418,-0.609 0.388,-0.62C0.358,-0.631 0.324,-0.636 0.286,-0.636L0.188,-0.636L0.188,-0.078L0.267,-0.078C0.353,-0.078 0.418,-0.102 0.461,-0.149C0.505,-0.197 0.527,-0.267 0.527,-0.361Z" style="fill:rgb(115,113,111);fill-rule:nonzero;"/>
            </g>
            <g transform="matrix(50,0,0,50,957.269,1266.05)">
                <path d="M0.382,-0.377L0.618,-0.377L0.618,-0.027C0.6,-0.021 0.582,-0.016 0.564,-0.011C0.546,-0.007 0.527,-0.003 0.508,0C0.489,0.003 0.468,0.006 0.447,0.007C0.426,0.009 0.403,0.01 0.379,0.01C0.328,0.01 0.283,0.001 0.243,-0.016C0.204,-0.033 0.171,-0.057 0.144,-0.089C0.117,-0.121 0.096,-0.159 0.082,-0.205C0.068,-0.25 0.061,-0.301 0.061,-0.358C0.061,-0.414 0.069,-0.465 0.084,-0.51C0.1,-0.555 0.122,-0.594 0.152,-0.625C0.181,-0.657 0.218,-0.681 0.261,-0.698C0.305,-0.716 0.354,-0.724 0.41,-0.724C0.446,-0.724 0.481,-0.721 0.514,-0.713C0.547,-0.706 0.578,-0.696 0.607,-0.682L0.572,-0.603C0.56,-0.609 0.547,-0.614 0.534,-0.619C0.52,-0.624 0.507,-0.628 0.492,-0.632C0.478,-0.635 0.463,-0.638 0.448,-0.641C0.433,-0.643 0.418,-0.644 0.403,-0.644C0.363,-0.644 0.328,-0.637 0.297,-0.624C0.267,-0.611 0.241,-0.592 0.22,-0.567C0.2,-0.543 0.184,-0.513 0.173,-0.477C0.163,-0.442 0.157,-0.402 0.157,-0.357C0.157,-0.315 0.162,-0.276 0.171,-0.241C0.18,-0.206 0.194,-0.175 0.213,-0.15C0.233,-0.125 0.258,-0.105 0.289,-0.091C0.32,-0.077 0.357,-0.07 0.401,-0.07C0.415,-0.07 0.428,-0.07 0.44,-0.071C0.452,-0.072 0.463,-0.073 0.473,-0.074C0.483,-0.076 0.493,-0.077 0.502,-0.079C0.511,-0.081 0.519,-0.082 0.528,-0.084L0.528,-0.297L0.382,-0.297L0.382,-0.377Z" style="fill:rgb(115,113,111);fill-rule:nonzero;"/>
            </g>
            <g transform="matrix(50,0,0,50,991.766,1266.05)">
                <path d="M0.468,0L0.097,0L0.097,-0.714L0.468,-0.714L0.468,-0.634L0.188,-0.634L0.188,-0.413L0.449,-0.413L0.449,-0.334L0.188,-0.334L0.188,-0.08L0.468,-0.08L0.468,0Z" style="fill:rgb(115,113,111);fill-rule:nonzero;"/>
            </g>
        </g>
    </g>
    <g transform="matrix(2.14218,0,0,2.14218,-2045.8,-3396.92)">
        <g transform="matrix(0.466814,0,0,0.466814,563.545,1222.13)">
            <path d="M1081.47,883.955C1090.05,867.376 1102.31,852.046 1118.4,838.031C1151.25,809.422 1189.57,795.088 1233.36,795.088C1277.83,795.088 1314.67,808.168 1344.39,832.832C1363.15,848.4 1376.62,866.685 1384.69,887.732C1401.52,882.709 1419.59,880.179 1438.9,880.179C1490.23,880.179 1532.86,897.991 1567.08,932.952C1602,968.623 1618.34,1007.93 1618.34,1049.87C1618.34,1069.8 1612.73,1085.28 1603.7,1097.14C1609.47,1107.74 1612.14,1119.15 1612.14,1131.18C1612.14,1157.76 1595.36,1189.53 1546.05,1212.27C1513.56,1227.25 1479.9,1234.68 1445.09,1234.68C1414.93,1234.68 1054.32,1234.68 1040.9,1234.68C988.142,1234.68 945.376,1216.82 912.055,1182.47C878.753,1148.14 861.98,1106.65 861.98,1057.9C861.98,1010.07 878.819,968.533 912.768,933.399C946.836,898.144 989.453,880.179 1040.9,880.179C1051.21,880.179 1062.38,881.024 1074.4,882.795C1076.75,883.141 1079.11,883.527 1081.47,883.955Z" style="fill:white;"/>
        </g>
        <g transform="matrix(0.466814,0,0,0.466814,563.545,1222.13)">
            <path d="M1078.65,878.185C1087.39,862.345 1099.46,847.625 1114.98,834.103C1148.81,804.643 1188.26,789.879 1233.36,789.879C1279.17,789.879 1317.1,803.416 1347.72,828.824C1365.88,843.895 1379.25,861.432 1387.77,881.448C1403.75,877.144 1420.79,874.97 1438.9,874.97C1491.72,874.97 1535.59,893.33 1570.81,929.309C1606.8,966.079 1623.54,1006.63 1623.54,1049.87C1623.54,1069.66 1618.29,1085.32 1609.8,1097.6C1614.94,1108.14 1617.35,1119.38 1617.35,1131.18C1617.35,1159.18 1600.17,1193.04 1548.23,1217C1515.04,1232.3 1480.65,1239.89 1445.09,1239.89C1414.93,1239.89 1054.32,1239.89 1040.9,1239.89C986.602,1239.89 942.611,1221.45 908.316,1186.1C874.044,1150.76 856.772,1108.07 856.772,1057.9C856.772,1008.68 874.088,965.933 909.023,929.78C944.089,893.491 987.945,874.97 1040.9,874.97C1051.44,874.97 1062.87,875.831 1075.16,877.642C1076.32,877.813 1077.49,877.994 1078.65,878.185ZM1445.09,1229.47C1479.15,1229.47 1512.08,1222.2 1543.86,1207.54C1590.55,1186.01 1606.94,1156.34 1606.94,1131.18C1606.94,1120.03 1604.48,1109.45 1599.13,1099.63C1598.15,1097.82 1598.31,1095.61 1599.56,1093.98C1607.98,1082.92 1613.13,1068.45 1613.13,1049.87C1613.13,1009.22 1597.2,971.167 1563.36,936.595C1530.14,902.653 1488.73,885.387 1438.9,885.387C1420.12,885.387 1402.55,887.838 1386.18,892.723C1383.58,893.502 1380.81,892.14 1379.83,889.598C1372.07,869.365 1359.1,851.805 1341.07,836.84C1312.24,812.919 1276.49,800.296 1233.36,800.296C1190.87,800.296 1153.7,814.202 1121.83,841.958C1106.27,855.51 1094.39,870.318 1086.1,886.348C1085.05,888.379 1082.8,889.488 1080.55,889.08C1078.24,888.663 1075.94,888.285 1073.64,887.948C1061.89,886.217 1050.98,885.387 1040.9,885.387C990.962,885.387 949.582,902.797 916.514,937.018C883.55,971.132 867.188,1011.46 867.188,1057.9C867.188,1105.23 883.462,1145.51 915.793,1178.84C948.142,1212.19 989.683,1229.47 1040.9,1229.47L1445.09,1229.47Z" style="fill:rgb(115,113,111);"/>
        </g>
        <g transform="matrix(240.804,0,0,220.676,1070.43,1774.45)">
            <path d="M0.268,-0.132L0.451,-0.132C0.474,-0.132 0.493,-0.127 0.507,-0.116C0.522,-0.105 0.529,-0.088 0.529,-0.066C0.529,-0.044 0.522,-0.028 0.508,-0.017C0.495,-0.006 0.478,0 0.457,0L0.123,0C0.1,0 0.081,-0.006 0.067,-0.017C0.052,-0.028 0.045,-0.044 0.045,-0.066C0.045,-0.081 0.053,-0.098 0.068,-0.117C0.086,-0.138 0.113,-0.169 0.148,-0.209C0.183,-0.248 0.215,-0.284 0.242,-0.318C0.269,-0.35 0.294,-0.383 0.317,-0.416C0.34,-0.45 0.352,-0.481 0.352,-0.509C0.352,-0.53 0.345,-0.548 0.331,-0.563C0.317,-0.578 0.3,-0.586 0.28,-0.586C0.259,-0.586 0.242,-0.581 0.229,-0.57C0.216,-0.559 0.207,-0.545 0.203,-0.529C0.198,-0.513 0.193,-0.497 0.188,-0.481C0.183,-0.465 0.176,-0.452 0.166,-0.441C0.155,-0.43 0.141,-0.424 0.124,-0.424C0.101,-0.424 0.084,-0.431 0.07,-0.445C0.058,-0.459 0.051,-0.476 0.051,-0.497C0.051,-0.559 0.075,-0.612 0.122,-0.657C0.169,-0.702 0.223,-0.724 0.286,-0.724C0.349,-0.724 0.402,-0.705 0.445,-0.667C0.487,-0.628 0.508,-0.578 0.508,-0.516C0.508,-0.483 0.499,-0.448 0.48,-0.409C0.461,-0.371 0.442,-0.34 0.423,-0.315C0.403,-0.29 0.375,-0.257 0.339,-0.216C0.303,-0.174 0.279,-0.147 0.268,-0.132Z" style="fill:rgb(83,172,0);fill-rule:nonzero;"/>
        </g>
        <g transform="matrix(240.804,0,0,220.676,1170.71,1774.45)">
            <path d="M0.464,-0.218L0.157,-0.218C0.162,-0.184 0.177,-0.158 0.202,-0.141C0.227,-0.123 0.258,-0.114 0.293,-0.114C0.32,-0.114 0.352,-0.124 0.388,-0.143C0.424,-0.162 0.447,-0.172 0.456,-0.172C0.471,-0.172 0.485,-0.166 0.497,-0.153C0.509,-0.14 0.515,-0.126 0.515,-0.11C0.515,-0.08 0.49,-0.052 0.439,-0.027C0.388,-0.001 0.335,0.012 0.28,0.012C0.2,0.012 0.135,-0.014 0.085,-0.066C0.035,-0.118 0.01,-0.184 0.01,-0.265C0.01,-0.34 0.035,-0.406 0.084,-0.461C0.133,-0.516 0.194,-0.544 0.268,-0.544C0.342,-0.544 0.404,-0.517 0.453,-0.462C0.502,-0.406 0.527,-0.347 0.527,-0.282C0.527,-0.239 0.506,-0.218 0.464,-0.218ZM0.154,-0.314L0.383,-0.314C0.379,-0.347 0.367,-0.373 0.347,-0.394C0.327,-0.414 0.301,-0.424 0.268,-0.424C0.237,-0.424 0.211,-0.413 0.19,-0.393C0.169,-0.372 0.157,-0.345 0.154,-0.314Z" style="fill:rgb(115,113,111);fill-rule:nonzero;"/>
        </g>
        <g transform="matrix(240.804,0,0,220.676,982.509,1774.45)">
            <path d="M0.435,-0.497C0.448,-0.484 0.454,-0.47 0.454,-0.453C0.454,-0.436 0.449,-0.421 0.439,-0.406C0.428,-0.391 0.415,-0.384 0.399,-0.384C0.388,-0.384 0.37,-0.389 0.345,-0.398C0.321,-0.407 0.301,-0.412 0.285,-0.412C0.246,-0.412 0.217,-0.398 0.196,-0.369C0.174,-0.34 0.164,-0.305 0.164,-0.265C0.164,-0.227 0.175,-0.193 0.197,-0.164C0.219,-0.135 0.248,-0.12 0.285,-0.12C0.298,-0.12 0.319,-0.125 0.345,-0.135C0.373,-0.145 0.388,-0.15 0.392,-0.15C0.409,-0.15 0.423,-0.144 0.436,-0.132C0.448,-0.119 0.454,-0.104 0.454,-0.087C0.454,-0.064 0.443,-0.045 0.42,-0.029C0.397,-0.013 0.372,-0.002 0.347,0.003C0.322,0.009 0.299,0.012 0.278,0.012C0.202,0.012 0.14,-0.015 0.092,-0.069C0.044,-0.123 0.02,-0.188 0.02,-0.265C0.02,-0.34 0.045,-0.406 0.094,-0.461C0.142,-0.516 0.204,-0.544 0.278,-0.544C0.294,-0.544 0.311,-0.543 0.33,-0.54C0.349,-0.537 0.368,-0.532 0.387,-0.525C0.406,-0.518 0.422,-0.509 0.435,-0.497Z" style="fill:rgb(115,113,111);fill-rule:nonzero;"/>
        </g>
    </g>
</svg>
