<?xml version="1.0" encoding="UTF-8" standalone="no"?><!DOCTYPE svg PUBLIC "-//W3C//DTD SVG 1.1//EN" "http://www.w3.org/Graphics/SVG/1.1/DTD/svg11.dtd"><svg width="100%" height="100%" viewBox="0 0 246 76" version="1.1" xmlns="http://www.w3.org/2000/svg" xmlns:xlink="http://www.w3.org/1999/xlink" xml:space="preserve" xmlns:serif="http://www.serif.com/" style="fill-rule:evenodd;clip-rule:evenodd;stroke-linejoin:round;stroke-miterlimit:2;"><g><g><path d="M135.227,25.517l0,-19.591c0,-0.176 0.066,-0.312 0.198,-0.407c0.132,-0.095 0.286,-0.143 0.462,-0.143l7.822,0c0.366,0 0.549,0.213 0.549,0.637c0,0.191 -0.048,0.356 -0.143,0.495c-0.095,0.139 -0.231,0.209 -0.406,0.209l-7.031,-0l-0,8.422l3.449,0c0.176,0 0.311,0.062 0.407,0.187c0.095,0.124 0.143,0.282 0.143,0.472c-0,0.396 -0.184,0.593 -0.55,0.593l-3.449,0l-0,8.357l7.031,0c0.161,0 0.293,0.066 0.395,0.198c0.103,0.132 0.154,0.293 0.154,0.483c0,0.44 -0.183,0.659 -0.549,0.659l-7.822,0c-0.176,0 -0.33,-0.051 -0.462,-0.153c-0.132,-0.103 -0.198,-0.242 -0.198,-0.418Z" style="fill:#1aa038;fill-rule:nonzero;"/><path d="M146.389,25.517l0,-19.591c0,-0.367 0.242,-0.55 0.725,-0.55c0.411,0 0.791,0.337 1.143,1.011l5.933,16.34l-0,-16.823c-0,-0.352 0.241,-0.528 0.725,-0.528c0.483,0 0.725,0.176 0.725,0.528l-0,19.613c-0,0.176 -0.073,0.315 -0.22,0.418c-0.146,0.102 -0.315,0.153 -0.505,0.153c-0.367,0 -0.689,-0.278 -0.967,-0.835l-6.108,-16.537l-0,16.801c-0,0.176 -0.074,0.315 -0.22,0.418c-0.147,0.102 -0.315,0.153 -0.506,0.153c-0.205,0 -0.377,-0.051 -0.516,-0.153c-0.139,-0.103 -0.209,-0.242 -0.209,-0.418Z" style="fill:#1aa038;fill-rule:nonzero;"/><path d="M158.98,25.539l-0,-19.635c-0,-0.147 0.062,-0.271 0.186,-0.374c0.125,-0.102 0.282,-0.154 0.473,-0.154l3.889,0c1.391,0 2.505,0.377 3.34,1.132c0.835,0.754 1.252,1.937 1.252,3.548l0,11.33c0,1.626 -0.417,2.816 -1.252,3.571c-0.835,0.754 -1.949,1.131 -3.34,1.131l-3.889,0c-0.191,0 -0.348,-0.055 -0.473,-0.164c-0.124,-0.11 -0.186,-0.238 -0.186,-0.385Zm1.45,-0.791l3.098,0c0.996,0 1.769,-0.282 2.318,-0.846c0.549,-0.564 0.824,-1.402 0.824,-2.516l-0,-11.33c-0,-1.113 -0.275,-1.948 -0.824,-2.504c-0.549,-0.557 -1.322,-0.835 -2.318,-0.835l-3.098,-0l-0,18.031Z" style="fill:#1aa038;fill-rule:nonzero;"/><path d="M170.757,15.732c-0,-0.187 0.051,-0.342 0.154,-0.464c0.102,-0.122 0.234,-0.184 0.395,-0.184l5.713,0c0.146,0 0.275,0.062 0.385,0.184c0.109,0.122 0.164,0.277 0.164,0.464c0,0.173 -0.055,0.317 -0.164,0.432c-0.11,0.115 -0.239,0.173 -0.385,0.173l-5.713,-0c-0.366,-0 -0.549,-0.202 -0.549,-0.605Z" style="fill:#1aa038;fill-rule:nonzero;"/><path d="M177.898,6.046c-0,-0.173 0.048,-0.328 0.143,-0.464c0.095,-0.137 0.23,-0.206 0.406,-0.206l8.811,0c0.176,0 0.311,0.065 0.407,0.195c0.095,0.129 0.142,0.281 0.142,0.454c0,0.187 -0.047,0.349 -0.142,0.486c-0.096,0.137 -0.231,0.206 -0.407,0.206l-3.669,-0l-0,18.799c-0,0.176 -0.073,0.316 -0.22,0.418c-0.146,0.103 -0.315,0.154 -0.505,0.154c-0.205,0 -0.378,-0.051 -0.517,-0.154c-0.139,-0.102 -0.208,-0.242 -0.208,-0.418l-0,-18.799l-3.692,-0c-0.161,-0 -0.293,-0.065 -0.395,-0.195c-0.103,-0.13 -0.154,-0.288 -0.154,-0.476Z" style="fill:#1aa038;fill-rule:nonzero;"/><path d="M189.258,21.518l-0,-11.462c-0,-1.611 0.413,-2.794 1.241,-3.548c0.828,-0.755 1.937,-1.132 3.329,-1.132c1.392,0 2.501,0.377 3.329,1.132c0.827,0.754 1.241,1.937 1.241,3.548l0,11.462c0,1.626 -0.414,2.816 -1.241,3.571c-0.828,0.754 -1.937,1.131 -3.329,1.131c-1.392,0 -2.501,-0.377 -3.329,-1.131c-0.828,-0.755 -1.241,-1.945 -1.241,-3.571Zm1.45,0c-0,2.241 1.04,3.362 3.12,3.362c2.08,-0 3.12,-1.121 3.12,-3.362l0,-11.462c0,-2.226 -1.04,-3.339 -3.12,-3.339c-2.08,-0 -3.12,1.113 -3.12,3.339l-0,11.462Z" style="fill:#1aa038;fill-rule:nonzero;"/><path d="M201.035,15.711c-0,-0.188 0.051,-0.342 0.154,-0.465c0.102,-0.122 0.234,-0.183 0.395,-0.183l5.713,-0c0.147,-0 0.275,0.061 0.385,0.183c0.109,0.123 0.164,0.277 0.164,0.465c0,0.172 -0.055,0.316 -0.164,0.432c-0.11,0.115 -0.238,0.172 -0.385,0.172l-5.713,0c-0.366,0 -0.549,-0.201 -0.549,-0.604Z" style="fill:#1aa038;fill-rule:nonzero;"/><path d="M210.637,25.517l-0,-19.591c-0,-0.176 0.066,-0.312 0.198,-0.407c0.131,-0.095 0.285,-0.143 0.461,-0.143l7.822,0c0.367,0 0.55,0.213 0.55,0.637c-0,0.191 -0.048,0.356 -0.143,0.495c-0.095,0.139 -0.231,0.209 -0.407,0.209l-7.031,-0l0,8.356l3.45,0c0.176,0 0.311,0.062 0.406,0.187c0.095,0.124 0.143,0.282 0.143,0.472c0,0.396 -0.183,0.594 -0.549,0.594l-3.45,-0l0,8.422l7.031,0c0.161,0 0.293,0.066 0.396,0.198c0.102,0.132 0.154,0.293 0.154,0.483c-0,0.44 -0.183,0.659 -0.55,0.659l-7.822,0c-0.176,0 -0.33,-0.051 -0.461,-0.153c-0.132,-0.103 -0.198,-0.242 -0.198,-0.418Z" style="fill:#1aa038;fill-rule:nonzero;"/><path d="M221.799,25.517l-0,-19.591c-0,-0.367 0.242,-0.55 0.725,-0.55c0.41,0 0.791,0.337 1.143,1.011l5.932,16.34l0,-16.823c0,-0.352 0.242,-0.528 0.725,-0.528c0.484,0 0.725,0.176 0.725,0.528l0,19.613c0,0.176 -0.073,0.315 -0.219,0.418c-0.147,0.102 -0.315,0.153 -0.506,0.153c-0.366,0 -0.688,-0.278 -0.967,-0.835l-6.108,-16.537l0,16.801c0,0.176 -0.073,0.315 -0.22,0.418c-0.146,0.102 -0.315,0.153 -0.505,0.153c-0.205,0 -0.377,-0.051 -0.516,-0.153c-0.139,-0.103 -0.209,-0.242 -0.209,-0.418Z" style="fill:#1aa038;fill-rule:nonzero;"/><path d="M234.389,25.539l0,-19.635c0,-0.147 0.062,-0.271 0.187,-0.374c0.124,-0.102 0.282,-0.154 0.472,-0.154l3.889,0c1.392,0 2.505,0.377 3.34,1.132c0.835,0.754 1.253,1.937 1.253,3.548l-0,11.33c-0,1.626 -0.418,2.816 -1.253,3.571c-0.835,0.754 -1.948,1.131 -3.34,1.131l-3.889,0c-0.19,0 -0.348,-0.055 -0.472,-0.164c-0.125,-0.11 -0.187,-0.238 -0.187,-0.385Zm1.45,-0.791l3.098,0c0.997,0 1.769,-0.282 2.319,-0.846c0.549,-0.564 0.824,-1.402 0.824,-2.516l-0,-11.33c-0,-1.113 -0.275,-1.948 -0.824,-2.504c-0.55,-0.557 -1.322,-0.835 -2.319,-0.835l-3.098,-0l0,18.031Z" style="fill:#1aa038;fill-rule:nonzero;"/></g><g><path d="M52.292,67.761l-0,-34.613c-0,-0.676 0.248,-1.209 0.744,-1.6c0.496,-0.391 1.079,-0.587 1.751,-0.587l15.582,-0c0.584,-0 1.029,0.302 1.335,0.907c0.307,0.604 0.46,1.297 0.46,2.08c-0,0.853 -0.161,1.582 -0.482,2.186c-0.321,0.605 -0.758,0.907 -1.313,0.907l-12.387,-0l-0,10.667l6.653,-0c0.555,-0 0.992,0.275 1.313,0.826c0.321,0.551 0.482,1.2 0.482,1.947c-0,0.676 -0.153,1.289 -0.46,1.84c-0.306,0.551 -0.751,0.827 -1.335,0.827l-6.653,-0l-0,10.72l12.387,-0c0.555,-0 0.992,0.302 1.313,0.906c0.321,0.605 0.482,1.334 0.482,2.187c-0,0.782 -0.153,1.476 -0.46,2.08c-0.306,0.604 -0.751,0.907 -1.335,0.907l-15.582,-0c-0.672,-0 -1.255,-0.196 -1.751,-0.587c-0.496,-0.391 -0.744,-0.924 -0.744,-1.6Z" style="fill:#1d1c4b;fill-rule:nonzero;"/><path d="M75.491,67.761l-0,-34.667c-0,-0.711 0.277,-1.244 0.831,-1.6c0.555,-0.355 1.226,-0.533 2.014,-0.533c0.788,-0 1.459,0.178 2.013,0.533c0.555,0.356 0.832,0.889 0.832,1.6l-0,30.774l10.68,-0c0.525,-0 0.941,0.302 1.248,0.906c0.306,0.605 0.459,1.316 0.459,2.134c0,0.817 -0.153,1.529 -0.459,2.133c-0.307,0.604 -0.723,0.907 -1.248,0.907l-13.875,-0c-0.672,-0 -1.255,-0.196 -1.751,-0.587c-0.496,-0.391 -0.744,-0.924 -0.744,-1.6Z" style="fill:#1d1c4b;fill-rule:nonzero;"/><path d="M96.676,67.761l0,-34.613c0,-0.676 0.248,-1.209 0.744,-1.6c0.496,-0.391 1.08,-0.587 1.751,-0.587l15.583,-0c0.583,-0 1.028,0.302 1.335,0.907c0.306,0.604 0.459,1.297 0.459,2.08c0,0.853 -0.16,1.582 -0.481,2.186c-0.321,0.605 -0.759,0.907 -1.313,0.907l-12.388,-0l0,10.667l6.654,-0c0.554,-0 0.992,0.275 1.313,0.826c0.321,0.551 0.481,1.2 0.481,1.947c0,0.676 -0.153,1.289 -0.459,1.84c-0.307,0.551 -0.752,0.827 -1.335,0.827l-6.654,-0l0,10.72l12.388,-0c0.554,-0 0.992,0.302 1.313,0.906c0.321,0.605 0.481,1.334 0.481,2.187c0,0.782 -0.153,1.476 -0.459,2.08c-0.307,0.604 -0.752,0.907 -1.335,0.907l-15.583,-0c-0.671,-0 -1.255,-0.196 -1.751,-0.587c-0.496,-0.391 -0.744,-0.924 -0.744,-1.6Z" style="fill:#1d1c4b;fill-rule:nonzero;"/><path d="M119.875,67.761l-0,-33.333c-0,-1.174 0.27,-2.045 0.81,-2.614c0.54,-0.569 1.218,-0.853 2.035,-0.853c1.08,-0 1.911,0.231 2.495,0.693c0.584,0.463 1.226,1.458 1.926,2.987l5.384,11.947l5.384,-11.947c0.7,-1.529 1.349,-2.524 1.948,-2.987c0.598,-0.462 1.437,-0.693 2.517,-0.693c0.817,-0 1.495,0.284 2.035,0.853c0.54,0.569 0.81,1.44 0.81,2.614l-0,33.333c-0,0.676 -0.285,1.209 -0.854,1.6c-0.569,0.391 -1.233,0.587 -1.991,0.587c-0.788,-0 -1.459,-0.196 -2.014,-0.587c-0.554,-0.391 -0.832,-0.924 -0.832,-1.6l0,-22.933l-5.121,11.093c-0.408,0.924 -1.05,1.387 -1.926,1.387c-0.846,-0 -1.473,-0.463 -1.882,-1.387l-5.034,-11.52l0,23.36c0,0.676 -0.284,1.209 -0.853,1.6c-0.569,0.391 -1.233,0.587 -1.992,0.587c-0.788,-0 -1.459,-0.196 -2.013,-0.587c-0.555,-0.391 -0.832,-0.924 -0.832,-1.6Z" style="fill:#1d1c4b;fill-rule:nonzero;"/><path d="M150.471,67.761l0,-34.613c0,-0.676 0.248,-1.209 0.744,-1.6c0.497,-0.391 1.08,-0.587 1.751,-0.587l15.583,-0c0.584,-0 1.029,0.302 1.335,0.907c0.306,0.604 0.46,1.297 0.46,2.08c-0,0.853 -0.161,1.582 -0.482,2.186c-0.321,0.605 -0.759,0.907 -1.313,0.907l-12.387,-0l-0,10.667l6.653,-0c0.554,-0 0.992,0.275 1.313,0.826c0.321,0.551 0.482,1.2 0.482,1.947c-0,0.676 -0.154,1.289 -0.46,1.84c-0.306,0.551 -0.751,0.827 -1.335,0.827l-6.653,-0l-0,10.72l12.387,-0c0.554,-0 0.992,0.302 1.313,0.906c0.321,0.605 0.482,1.334 0.482,2.187c-0,0.782 -0.154,1.476 -0.46,2.08c-0.306,0.604 -0.751,0.907 -1.335,0.907l-15.583,-0c-0.671,-0 -1.254,-0.196 -1.751,-0.587c-0.496,-0.391 -0.744,-0.924 -0.744,-1.6Z" style="fill:#1d1c4b;fill-rule:nonzero;"/><path d="M171.569,33.975c0,-0.797 0.153,-1.498 0.46,-2.104c0.306,-0.607 0.751,-0.91 1.335,-0.91l18.515,-0c0.584,-0 1.029,0.303 1.335,0.91c0.307,0.606 0.46,1.307 0.46,2.104c-0,0.831 -0.161,1.55 -0.482,2.156c-0.321,0.607 -0.758,0.91 -1.313,0.91l-6.39,-0l-0,30.709c-0,0.679 -0.285,1.215 -0.854,1.608c-0.569,0.393 -1.233,0.59 -1.992,0.59c-0.787,-0 -1.459,-0.197 -2.013,-0.59c-0.554,-0.393 -0.832,-0.929 -0.832,-1.608l0,-30.709l-6.434,-0c-0.555,-0 -0.992,-0.294 -1.313,-0.883c-0.321,-0.589 -0.482,-1.317 -0.482,-2.183Z" style="fill:#1d1c4b;fill-rule:nonzero;"/><path d="M196.782,67.761l-0,-34.667c-0,-0.569 0.175,-1.066 0.525,-1.493c0.35,-0.427 0.788,-0.64 1.313,-0.64l8.667,-0c6.916,-0 10.374,3.716 10.374,11.147c-0,2.915 -0.518,5.262 -1.554,7.04c-1.036,1.777 -2.429,2.986 -4.18,3.626l5.734,12.96c0.146,0.214 0.219,0.498 0.219,0.854c-0,0.889 -0.38,1.715 -1.138,2.48c-0.759,0.764 -1.562,1.146 -2.408,1.146c-0.846,0 -1.503,-0.551 -1.97,-1.653l-6.215,-14.72l-3.677,-0l-0,13.92c-0,0.676 -0.277,1.209 -0.832,1.6c-0.554,0.391 -1.225,0.587 -2.013,0.587c-0.759,-0 -1.423,-0.196 -1.992,-0.587c-0.569,-0.391 -0.853,-0.924 -0.853,-1.6Zm5.69,-19.36l4.815,-0c3.122,-0 4.683,-1.884 4.683,-5.653c0,-3.805 -1.561,-5.707 -4.683,-5.707l-4.815,-0l-0,11.36Z" style="fill:#1d1c4b;fill-rule:nonzero;"/><path d="M219.193,33.841c-0,-0.782 0.416,-1.458 1.247,-2.027c0.832,-0.569 1.671,-0.853 2.517,-0.853c0.788,-0 1.372,0.462 1.751,1.387l6.653,15.413l6.697,-15.413c0.409,-0.925 0.978,-1.387 1.707,-1.387c0.847,-0 1.686,0.284 2.517,0.853c0.832,0.569 1.248,1.245 1.248,2.027c-0,0.284 -0.044,0.516 -0.132,0.693l-9.017,19.094c-0.116,0.213 -0.175,0.444 -0.175,0.693l0,13.44c0,0.676 -0.277,1.209 -0.831,1.6c-0.555,0.391 -1.226,0.587 -2.014,0.587c-0.758,-0 -1.422,-0.196 -1.991,-0.587c-0.569,-0.391 -0.854,-0.924 -0.854,-1.6l0,-13.44c0,-0.32 -0.044,-0.551 -0.131,-0.693l-9.061,-19.094c-0.088,-0.284 -0.131,-0.515 -0.131,-0.693Z" style="fill:#1d1c4b;fill-rule:nonzero;"/></g><path d="M34.641,21.643l-0,47.119c-0,0.654 0.531,1.186 1.185,1.186l9.488,-0c0.654,-0 1.185,-0.532 1.185,-1.186l0,-47.119l64.037,-0l-0,2.904c-0,0.538 0.289,1.036 0.759,1.301c0.469,0.265 1.044,0.258 1.506,-0.02l14.706,-8.837c0.45,-0.271 0.725,-0.757 0.725,-1.282c0,-0.525 -0.275,-1.011 -0.725,-1.282l-14.706,-8.837c-0.462,-0.278 -1.037,-0.285 -1.506,-0.02c-0.47,0.265 -0.759,0.763 -0.759,1.302l-0,2.903l-90.7,0l0,-2.903c0,-0.539 -0.29,-1.037 -0.759,-1.302c-0.469,-0.265 -1.044,-0.258 -1.506,0.02l-14.706,8.837c-0.45,0.271 -0.725,0.757 -0.725,1.282c-0,0.525 0.275,1.011 0.725,1.282l14.706,8.837c0.462,0.278 1.037,0.285 1.506,0.02c0.469,-0.265 0.759,-0.763 0.759,-1.301l0,-2.904l14.805,-0Z" style="fill:#1d1c4b;"/></g></svg>
