<?xml version="1.0" encoding="UTF-8" standalone="no"?><!DOCTYPE svg PUBLIC "-//W3C//DTD SVG 1.1//EN" "http://www.w3.org/Graphics/SVG/1.1/DTD/svg11.dtd"><svg width="100%" height="100%" viewBox="0 0 133 76" version="1.1" xmlns="http://www.w3.org/2000/svg" xmlns:xlink="http://www.w3.org/1999/xlink" xml:space="preserve" xmlns:serif="http://www.serif.com/" style="fill-rule:evenodd;clip-rule:evenodd;stroke-linejoin:round;stroke-miterlimit:2;"><g><path d="M35.596,21.643l0,47.119c0,0.654 0.532,1.186 1.186,1.186l9.487,-0c0.655,-0 1.186,-0.532 1.186,-1.186l0,-47.119l64.036,-0l0,2.904c0,0.538 0.29,1.036 0.759,1.301c0.469,0.265 1.045,0.258 1.507,-0.02l14.706,-8.837c0.45,-0.271 0.725,-0.757 0.725,-1.282c0,-0.525 -0.275,-1.011 -0.725,-1.282l-14.706,-8.837c-0.462,-0.278 -1.038,-0.285 -1.507,-0.02c-0.469,0.265 -0.759,0.763 -0.759,1.302l0,2.903l-90.699,0l0,-2.903c0,-0.539 -0.29,-1.037 -0.759,-1.302c-0.469,-0.265 -1.044,-0.258 -1.506,0.02l-14.707,8.837c-0.449,0.271 -0.725,0.757 -0.725,1.282c0,0.525 0.276,1.011 0.725,1.282l14.707,8.837c0.462,0.278 1.037,0.285 1.506,0.02c0.469,-0.265 0.759,-0.763 0.759,-1.301l0,-2.904l14.804,-0Z" style="fill:#1d1c4b;"/><g><path d="M52.005,41.361l0,-8.213c0,-0.534 0.256,-1.031 0.766,-1.494c0.511,-0.462 1.087,-0.693 1.729,-0.693l15.539,-0c0.555,-0 1.109,0.231 1.663,0.693c0.555,0.463 0.832,0.96 0.832,1.494l0,6.08c0,0.924 -0.365,2.275 -1.094,4.053l-11.074,25.92c-0.292,0.676 -0.832,1.013 -1.62,1.013c-0.934,0 -1.765,-0.337 -2.495,-1.013c-0.729,-0.676 -1.094,-1.493 -1.094,-2.453c-0,-0.463 0.087,-0.871 0.262,-1.227l11.425,-24.96l-0,-3.52l-9.148,-0l-0,4.32c-0,0.64 -0.292,1.173 -0.876,1.6c-0.584,0.427 -1.255,0.64 -2.013,0.64c-0.788,-0 -1.452,-0.213 -1.992,-0.64c-0.54,-0.427 -0.81,-0.96 -0.81,-1.6Z" style="fill:#1d1c4b;fill-rule:nonzero;"/><path d="M73.672,33.841c0,-0.782 0.416,-1.458 1.248,-2.027c0.831,-0.569 1.67,-0.853 2.517,-0.853c0.787,-0 1.371,0.462 1.75,1.387l6.654,15.413l6.697,-15.413c0.408,-0.925 0.977,-1.387 1.707,-1.387c0.846,-0 1.685,0.284 2.517,0.853c0.831,0.569 1.247,1.245 1.247,2.027c0,0.284 -0.044,0.516 -0.131,0.693l-9.017,19.094c-0.117,0.213 -0.175,0.444 -0.175,0.693l-0,13.44c-0,0.676 -0.277,1.209 -0.832,1.6c-0.554,0.391 -1.225,0.587 -2.013,0.587c-0.759,-0 -1.423,-0.196 -1.992,-0.587c-0.569,-0.391 -0.853,-0.924 -0.853,-1.6l-0,-13.44c-0,-0.32 -0.044,-0.551 -0.132,-0.693l-9.061,-19.094c-0.087,-0.284 -0.131,-0.515 -0.131,-0.693Z" style="fill:#1d1c4b;fill-rule:nonzero;"/></g><g><path d="M96.907,69.376l-0,-19.591c-0,-0.176 0.066,-0.311 0.197,-0.407c0.132,-0.095 0.286,-0.143 0.462,-0.143l7.822,0c0.366,0 0.549,0.213 0.549,0.638c0,0.19 -0.047,0.355 -0.143,0.494c-0.095,0.139 -0.23,0.209 -0.406,0.209l-7.031,-0l-0,8.356l3.449,0c0.176,0 0.312,0.063 0.407,0.187c0.095,0.125 0.143,0.282 0.143,0.473c-0,0.395 -0.183,0.593 -0.55,0.593l-3.449,-0l-0,8.422l7.031,0c0.161,0 0.293,0.066 0.395,0.198c0.103,0.132 0.154,0.293 0.154,0.483c0,0.44 -0.183,0.66 -0.549,0.66l-7.822,-0c-0.176,-0 -0.33,-0.052 -0.462,-0.154c-0.131,-0.103 -0.197,-0.242 -0.197,-0.418Z" style="fill:#1aa038;fill-rule:nonzero;"/><path d="M107.105,69.253l0,-3.808c0,-0.819 0.252,-1.611 0.755,-2.377c0.502,-0.765 1.113,-1.468 1.831,-2.109l2.153,-1.897c0.733,-0.641 1.355,-1.366 1.868,-2.177c0.513,-0.81 0.769,-1.642 0.769,-2.497c-0,-0.926 -0.26,-1.745 -0.78,-2.458c-0.52,-0.712 -1.249,-1.068 -2.186,-1.068c-0.791,0 -1.432,0.273 -1.923,0.819c-0.49,0.546 -0.736,1.329 -0.736,2.349c0,0.197 -0.069,0.368 -0.208,0.511c-0.138,0.143 -0.324,0.214 -0.558,0.214c-0.437,0 -0.656,-0.364 -0.656,-1.093c-0,-1.28 0.395,-2.338 1.185,-3.173c0.79,-0.836 1.77,-1.254 2.94,-1.254c1.258,0 2.3,0.487 3.127,1.461c0.826,0.974 1.239,2.187 1.239,3.639c0,0.89 -0.182,1.745 -0.548,2.564c-0.366,0.819 -0.819,1.514 -1.36,2.083c-0.541,0.57 -1.133,1.149 -1.777,1.736l-1.78,1.55c-0.542,0.445 -0.996,0.948 -1.361,1.509c-0.366,0.561 -0.549,1.117 -0.549,1.669l-0,2.875l7.002,-0c0.146,-0 0.27,0.08 0.373,0.24c0.102,0.16 0.154,0.347 0.154,0.56c-0,0.213 -0.051,0.404 -0.153,0.573c-0.102,0.169 -0.226,0.254 -0.371,0.254l-7.773,-0c-0.16,-0 -0.313,-0.067 -0.458,-0.201c-0.146,-0.133 -0.219,-0.298 -0.219,-0.494Z" style="fill:#1aa038;fill-rule:nonzero;"/><path d="M118.385,69.376l-0,-19.591c-0,-0.176 0.066,-0.311 0.197,-0.407c0.132,-0.095 0.286,-0.143 0.462,-0.143l7.822,0c0.366,0 0.549,0.213 0.549,0.638c0,0.19 -0.047,0.355 -0.142,0.494c-0.096,0.139 -0.231,0.209 -0.407,0.209l-7.031,-0l-0,8.356l3.45,0c0.175,0 0.311,0.063 0.406,0.187c0.095,0.125 0.143,0.282 0.143,0.473c-0,0.395 -0.183,0.593 -0.549,0.593l-3.45,-0l-0,8.422l7.031,0c0.161,0 0.293,0.066 0.396,0.198c0.102,0.132 0.153,0.293 0.153,0.483c0,0.44 -0.183,0.66 -0.549,0.66l-7.822,-0c-0.176,-0 -0.33,-0.052 -0.462,-0.154c-0.131,-0.103 -0.197,-0.242 -0.197,-0.418Z" style="fill:#1aa038;fill-rule:nonzero;"/></g></g></svg>
